<?xml version="1.0" standalone="no"?><!DOCTYPE svg PUBLIC "-//W3C//DTD SVG 1.1//EN" "http://www.w3.org/Graphics/SVG/1.1/DTD/svg11.dtd"><svg t="1594362857128" class="icon" viewBox="0 0 1024 1024" version="1.1" xmlns="http://www.w3.org/2000/svg" p-id="6374" xmlns:xlink="http://www.w3.org/1999/xlink" width="200" height="200"><defs><style type="text/css"></style></defs><path d="M485.27103632 564.43121039c-155.65690297 0-282.29787296-126.64096996-282.29787295-282.29787296S329.61413334-0.16453553 485.27103632-0.16453553c155.65690297 0 282.29787296 126.64096996 282.29787296 282.29787296S640.92793932 564.43121039 485.27103632 564.43121039zM485.27103632 62.72714296c-120.92354453 0-219.40619446 98.48264994-219.40619446 219.40619447S364.34749178 501.53953189 485.27103632 501.53953189c120.92354453 0 219.40619446-98.48264994 219.40619447-219.40619446S606.19458086 62.72714296 485.27103632 62.72714296zM39.59773658 1009.67570294c-17.43814733 0-31.44583855-14.00769123-31.44583856-31.44583855 0-64.46396966 12.57833627-126.92684095 37.449135-185.67338517 24.01318575-56.88838204 58.46067323-107.77346627 102.19897704-151.65470491 43.73830383-43.73830383 94.76632423-78.18578989 151.65470489-102.19897704 58.88948042-24.87080011 121.3523517-37.44913499 185.67338517-37.44913497 76.61349873 0 149.65360654 17.58108212 217.40509613 52.31444059 15.43704758 7.86145999 21.58328022 26.87189848 13.57888543 42.30894743s-26.87189848 21.58328022-42.30894746 13.57888544c-58.74654422-30.15941839-122.2099647-45.31059498-188.6750341-45.31059498-228.41113981 0-414.22746119 185.81632137-414.22746119 414.22746121C71.04357652 995.52507552 56.8929491 1009.67570294 39.59773658 1009.67570294zM832.89049331 688.78520962l-240.13186169 0c-17.29521114 0-31.44583855-14.15062742-31.44583854-31.44583855l0 0c0-17.29521114 14.15062742-31.44583855 31.44583854-31.44583855l240.13186169 0c17.29521114 0 31.44583855 14.15062742 31.44583857 31.44583855l0 0C864.33633188 674.6345822 850.18570446 688.78520962 832.89049331 688.78520962zM893.92400826 852.4465088l-303.0235388 0c-17.29521114 0-31.44583855-14.15062742-31.44583855-31.44583856l0 0c0-17.29521114 14.15062742-31.44583855 31.44583855-31.44583854l303.0235388 0c17.29521114 0 31.44583855 14.15062742 31.44583857 31.44583854l0 0C925.36984683 838.29587997 911.21921939 852.4465088 893.92400826 852.4465088zM987.97565293 1017.53716294l-394.50234314 0c-17.29521114 0-31.44583855-14.15062742-31.44583855-31.44583855l0 0c0-17.29521114 14.15062742-31.44583855 31.44583855-31.44583857l394.50234314 0c17.29521114 0 31.44583855 14.15062742 31.44583854 31.44583857l0 0C1019.42149287 1003.3865355 1005.27086546 1017.53716294 987.97565293 1017.53716294z" fill="#969696" p-id="6375"></path></svg>