<?xml version="1.0" standalone="no"?><!DOCTYPE svg PUBLIC "-//W3C//DTD SVG 1.1//EN" "http://www.w3.org/Graphics/SVG/1.1/DTD/svg11.dtd"><svg t="1594891432959" class="icon" viewBox="0 0 1024 1024" version="1.1" xmlns="http://www.w3.org/2000/svg" p-id="3441" xmlns:xlink="http://www.w3.org/1999/xlink" width="200" height="200"><defs><style type="text/css"></style></defs><path d="M512 1021.10937791c-266.41148246 0-483.16985434-216.75837187-483.16985434-483.16985434S245.58851754 54.76966925 512 54.76966925c132.84319508 0 256.61167956 52.77461548 348.58550663 148.59503977 10.96134723 11.39663539 50.08839874 54.0083199 59.81604156 66.42101559 12.63150366 16.18829673 9.72764283 39.56233966-6.4606539 52.19384334-16.26045679 12.63150366-39.6356636 9.65431889-52.19384333-6.46065391-8.85590265-11.39663539-44.78928917-50.23388275-54.73457607-60.61445781C729.12149996 173.74765625 624.3718491 129.1038511 512 129.1038511c-225.39663043 0-408.83567247 183.43904203-408.83567247 408.83567247S286.60336957 946.77519604 512 946.77519604 920.83567247 763.33615401 920.83567247 537.93952357c0-20.54350604 16.62358489-37.16709092 37.16709094-37.16709093s37.16709092 16.62358489 37.16709093 37.16709093c0 266.41148246-216.75837187 483.16985434-483.16985434 483.16985434z"  p-id="3442"></path><path d="M883.30661733 352.10523281H638.38254117c-20.54350604 0-37.16709092-16.62358489-37.16709092-37.16709095s16.62358489-37.16709092 37.16709092-37.16709092h237.88265009V39.88840086c0-20.54350604 16.62358489-37.16709092 37.16709094-37.16709094s37.16709092 16.62358489 37.16709093 37.16709094v244.92407615c-0.00116387 37.09376699-30.1989888 67.29275579-67.2927558 67.2927558z"  p-id="3443"></path></svg>